<svg width="24" height="25" viewBox="0 0 24 25" fill="none" xmlns="http://www.w3.org/2000/svg">
<path d="M18 2.63867V4.63867M6 2.63867V4.63867" stroke="#737373" stroke-width="1.5" stroke-linecap="round" stroke-linejoin="round"/>
<path d="M11.9955 13.6387H12.0045M11.9955 17.6387H12.0045M15.991 13.6387H16M8 13.6387H8.00897M8 17.6387H8.00897" stroke="#737373" stroke-width="2" stroke-linecap="round" stroke-linejoin="round"/>
<path d="M3.5 8.63867H20.5" stroke="#737373" stroke-width="1.5" stroke-linecap="round" stroke-linejoin="round"/>
<path d="M2.5 12.8819C2.5 8.52461 2.5 6.34595 3.75212 4.99231C5.00424 3.63867 7.01949 3.63867 11.05 3.63867H12.95C16.9805 3.63867 18.9958 3.63867 20.2479 4.99231C21.5 6.34595 21.5 8.52461 21.5 12.8819V13.3955C21.5 17.7528 21.5 19.9314 20.2479 21.2851C18.9958 22.6387 16.9805 22.6387 12.95 22.6387H11.05C7.01949 22.6387 5.00424 22.6387 3.75212 21.2851C2.5 19.9314 2.5 17.7528 2.5 13.3955V12.8819Z" stroke="#737373" stroke-width="1.5" stroke-linecap="round" stroke-linejoin="round"/>
<path d="M3 8.63867H21" stroke="#737373" stroke-width="1.5" stroke-linecap="round" stroke-linejoin="round"/>
</svg>
