<svg width="49" height="49" viewBox="0 0 49 49" fill="none" xmlns="http://www.w3.org/2000/svg">
<rect x="0.517107" y="0.521651" width="47" height="47" rx="23.5" transform="rotate(0.019056 0.517107 0.521651)" fill="white"/>
<rect x="0.517107" y="0.521651" width="47" height="47" rx="23.5" transform="rotate(0.019056 0.517107 0.521651)" stroke="#E9E9E9"/>
<path d="M20.0079 28.028L27.2711 28.0304C31.7587 28.0319 32.4422 25.2129 33.2713 21.1015C33.5104 19.9156 33.63 19.3227 33.3431 18.9275C33.0561 18.5323 32.5058 18.5322 31.4052 18.5318L18.0111 18.5273" stroke="#737373" stroke-width="1.5" stroke-linecap="round"/>
<path d="M20.0079 28.0282L17.3908 15.5423C17.1685 14.6518 16.3688 14.027 15.4511 14.0267L14.5126 14.0264" stroke="#737373" stroke-width="1.5" stroke-linecap="round"/>
<path d="M20.888 28.0283L20.4765 28.0282C19.1132 28.0277 18.0076 29.1786 18.0071 30.5987C18.007 30.8354 18.1912 31.0274 18.4184 31.0275L29.507 31.0312" stroke="#737373" stroke-width="1.5" stroke-linecap="round" stroke-linejoin="round"/>
<path d="M22.506 34.0288C23.3344 34.0291 24.0062 33.3577 24.0065 32.5293C24.0067 31.7009 23.3354 31.0291 22.507 31.0288C21.6785 31.0285 21.0067 31.6999 21.0065 32.5283C21.0062 33.3567 21.6775 34.0285 22.506 34.0288Z" stroke="#737373" stroke-width="1.5"/>
<path d="M29.506 34.0313C30.3344 34.0315 31.0062 33.3602 31.0065 32.5318C31.0067 31.7033 30.3354 31.0315 29.507 31.0313C28.6785 31.031 28.0067 31.7023 28.0065 32.5308C28.0062 33.3592 28.6775 34.031 29.506 34.0313Z" stroke="#737373" stroke-width="1.5"/>
</svg>
