<svg width="24" height="25" viewBox="0 0 24 25" fill="none" xmlns="http://www.w3.org/2000/svg">
<path d="M12.0063 22.6387C17.5292 22.6387 22.0063 18.1615 22.0063 12.6387C22.0063 7.11582 17.5292 2.63867 12.0063 2.63867C6.4835 2.63867 2.00635 7.11582 2.00635 12.6387C2.00635 18.1615 6.4835 22.6387 12.0063 22.6387Z" stroke="#737373" stroke-width="1.5"/>
<path d="M7.50635 17.6387C9.83805 15.1965 14.1495 15.0815 16.5063 17.6387M14.5014 10.1387C14.5014 11.5194 13.3805 12.6387 11.9978 12.6387C10.6152 12.6387 9.49432 11.5194 9.49432 10.1387C9.49432 8.75796 10.6152 7.63867 11.9978 7.63867C13.3805 7.63867 14.5014 8.75796 14.5014 10.1387Z" stroke="#737373" stroke-width="1.5" stroke-linecap="round"/>
</svg>
